{
  "accessors": [
    {
      "bufferView": 2,
      "componentType": 5126,
      "count": 5318,
      "max": [
        16.0,
        16.0,
        96.0
      ],
      "min": [
        -16.0,
        -17.482580184936523,
        0.0
      ],
      "type": "VEC3"
    },
    {
      "bufferView": 2,
      "byteOffset": 63816,
      "componentType": 5126,
      "count": 5318,
      "max": [
        1.0,
        1.0,
        1.0
      ],
      "min": [
        -1.0,
        -1.0,
        -1.0
      ],
      "type": "VEC3"
    },
    {
      "bufferView": 1,
      "componentType": 5126,
      "count": 5318,
      "max": [
        0.9981600046157837,
        0.9926499724388123
      ],
      "min": [
        0.009290000423789024,
        0.009119999594986439
      ],
      "type": "VEC2"
    },
    {
      "bufferView": 0,
      "componentType": 5125,
      "count": 12846,
      "type": "SCALAR"
    },
    {
      "bufferView": 2,
      "byteOffset": 127632,
      "componentType": 5126,
      "count": 64,
      "max": [
        12.982359886169434,
        -15.104470252990723,
        71.97602081298828
      ],
      "min": [
        -12.982359886169434,
        -16.295520782470703,
        66.52822875976563
      ],
      "type": "VEC3"
    },
    {
      "bufferView": 2,
      "byteOffset": 128400,
      "componentType": 5126,
      "count": 64,
      "max": [
        0.8998597264289856,
        0.0,
        0.9996483325958252
      ],
      "min": [
        -0.8998597264289856,
        0.0,
        0.43617957830429077
      ],
      "type": "VEC3"
    },
    {
      "bufferView": 1,
      "byteOffset": 42544,
      "componentType": 5126,
      "count": 64,
      "max": [
        0.7022500038146973,
        0.8113499879837036
      ],
      "min": [
        0.39034000039100647,
        0.7506600022315979
      ],
      "type": "VEC2"
    },
    {
      "bufferView": 0,
      "byteOffset": 51384,
      "componentType": 5125,
      "count": 156,
      "type": "SCALAR"
    }
  ],
  "asset": {
    "extras": {
      "author": "maxdragonn (https://sketchfab.com/maxdragon)",
      "license": "CC-BY-4.0 (http://creativecommons.org/licenses/by/4.0/)",
      "source": "https://sketchfab.com/3d-models/dec-pdp-11-e695ca5586014c0cbe6878492259a210",
      "title": "DEC PDP-11"
    },
    "generator": "Sketchfab-12.67.0",
    "version": "2.0"
  },
  "bufferViews": [
    {
      "buffer": 0,
      "byteLength": 52008,
      "name": "floatBufferViews",
      "target": 34963
    },
    {
      "buffer": 0,
      "byteLength": 43056,
      "byteOffset": 52008,
      "byteStride": 8,
      "name": "floatBufferViews",
      "target": 34962
    },
    {
      "buffer": 0,
      "byteLength": 129168,
      "byteOffset": 95064,
      "byteStride": 12,
      "name": "floatBufferViews",
      "target": 34962
    }
  ],
  "buffers": [
    {
      "byteLength": 224232,
      "uri": "scene.bin"
    }
  ],
  "images": [
    {
      "uri": "textures/pdp11_baseColor.png"
    },
    {
      "uri": "textures/tape_baseColor.png"
    }
  ],
  "materials": [
    {
      "doubleSided": true,
      "name": "pdp11",
      "pbrMetallicRoughness": {
        "baseColorTexture": {
          "index": 0
        },
        "metallicFactor": 0.317879053195435,
        "roughnessFactor": 0.25650882537134656
      }
    },
    {
      "doubleSided": true,
      "name": "tape",
      "pbrMetallicRoughness": {
        "baseColorTexture": {
          "index": 1
        },
        "metallicFactor": 0.0,
        "roughnessFactor": 0.20178726690136128
      }
    }
  ],
  "meshes": [
    {
      "name": "pdp11_0",
      "primitives": [
        {
          "attributes": {
            "NORMAL": 1,
            "POSITION": 0,
            "TEXCOORD_0": 2
          },
          "indices": 3,
          "material": 0,
          "mode": 4
        }
      ]
    },
    {
      "name": "pdp11_1",
      "primitives": [
        {
          "attributes": {
            "NORMAL": 5,
            "POSITION": 4,
            "TEXCOORD_0": 6
          },
          "indices": 7,
          "material": 1,
          "mode": 4
        }
      ]
    }
  ],
  "nodes": [
    {
      "children": [
        1
      ],
      "matrix": [
        1.0,
        0.0,
        0.0,
        0.0,
        0.0,
        2.220446049250313e-16,
        -1.0,
        0.0,
        0.0,
        1.0,
        2.220446049250313e-16,
        0.0,
        0.0,
        0.0,
        0.0,
        1.0
      ],
      "name": "Sketchfab_model"
    },
    {
      "children": [
        2,
        4
      ],
      "name": "Root"
    },
    {
      "children": [
        3
      ],
      "matrix": [
        -0.29086000000000006,
        0.9551700000000001,
        -0.05519000000000001,
        0.0,
        -0.7711,
        -0.19988000000000003,
        0.6045200000000001,
        0.0,
        0.5663900000000001,
        0.21839000000000003,
        0.7946700000000001,
        0.0,
        4.076250000000001,
        1.00545,
        5.903860000000001,
        1.0
      ],
      "name": "Lamp"
    },
    {
      "name": "Lamp"
    },
    {
      "children": [
        5,
        6
      ],
      "name": "pdp11"
    },
    {
      "mesh": 0,
      "name": "pdp11_0"
    },
    {
      "mesh": 1,
      "name": "pdp11_1"
    }
  ],
  "samplers": [
    {
      "magFilter": 9729,
      "minFilter": 9987,
      "wrapS": 10497,
      "wrapT": 10497
    }
  ],
  "scene": 0,
  "scenes": [
    {
      "name": "Sketchfab_Scene",
      "nodes": [
        0
      ]
    }
  ],
  "textures": [
    {
      "sampler": 0,
      "source": 0
    },
    {
      "sampler": 0,
      "source": 1
    }
  ]
}
