{
  "accessors": [
    {
      "bufferView": 2,
      "componentType": 5126,
      "count": 65532,
      "max": [
        53.669925689697266,
        51.98078536987305,
        15.910539627075195
      ],
      "min": [
        -60.537635803222656,
        35.043304443359375,
        -65.3797378540039
      ],
      "type": "VEC3"
    },
    {
      "bufferView": 2,
      "byteOffset": 786384,
      "componentType": 5126,
      "count": 65532,
      "max": [
        0.9998904466629028,
        0.9999684691429138,
        0.999997079372406
      ],
      "min": [
        -0.9999330043792725,
        -1.0,
        -0.9999443888664246
      ],
      "type": "VEC3"
    },
    {
      "bufferView": 1,
      "componentType": 5126,
      "count": 65532,
      "max": [
        0.992592990398407,
        0.9980220198631287
      ],
      "min": [
        0.0005859999801032245,
        0.001538999960757792
      ],
      "type": "VEC2"
    },
    {
      "bufferView": 0,
      "componentType": 5125,
      "count": 351771,
      "type": "SCALAR"
    },
    {
      "bufferView": 2,
      "byteOffset": 1572768,
      "componentType": 5126,
      "count": 65532,
      "max": [
        15.412070274353027,
        51.16569137573242,
        30.299842834472656
      ],
      "min": [
        -30.598026275634766,
        38.46864700317383,
        -17.848751068115234
      ],
      "type": "VEC3"
    },
    {
      "bufferView": 2,
      "byteOffset": 2359152,
      "componentType": 5126,
      "count": 65532,
      "max": [
        0.9999396204948425,
        0.9989424347877502,
        0.9999821186065674
      ],
      "min": [
        -0.9999821186065674,
        -0.9999998807907104,
        -0.9999764561653137
      ],
      "type": "VEC3"
    },
    {
      "bufferView": 1,
      "byteOffset": 524256,
      "componentType": 5126,
      "count": 65532,
      "max": [
        0.9999819993972778,
        0.9999570250511169
      ],
      "min": [
        0.00010099999781232327,
        8.399999933317304e-05
      ],
      "type": "VEC2"
    },
    {
      "bufferView": 0,
      "byteOffset": 1407084,
      "componentType": 5125,
      "count": 323385,
      "type": "SCALAR"
    },
    {
      "bufferView": 2,
      "byteOffset": 3145536,
      "componentType": 5126,
      "count": 65532,
      "max": [
        4.069289207458496,
        51.12794876098633,
        9.686943054199219
      ],
      "min": [
        -39.325950622558594,
        35.06046676635742,
        -28.73562240600586
      ],
      "type": "VEC3"
    },
    {
      "bufferView": 2,
      "byteOffset": 3931920,
      "componentType": 5126,
      "count": 65532,
      "max": [
        0.9999754428863525,
        0.9994967579841614,
        0.9999969005584717
      ],
      "min": [
        -0.9999640583992004,
        -0.9999999403953552,
        -0.999980628490448
      ],
      "type": "VEC3"
    },
    {
      "bufferView": 1,
      "byteOffset": 1048512,
      "componentType": 5126,
      "count": 65532,
      "max": [
        0.9998700022697449,
        0.9999960064888
      ],
      "min": [
        4.8999998398358e-05,
        9.999999974752427e-07
      ],
      "type": "VEC2"
    },
    {
      "bufferView": 0,
      "byteOffset": 2700624,
      "componentType": 5125,
      "count": 314745,
      "type": "SCALAR"
    },
    {
      "bufferView": 2,
      "byteOffset": 4718304,
      "componentType": 5126,
      "count": 65532,
      "max": [
        29.5389461517334,
        51.18122863769531,
        16.196706771850586
      ],
      "min": [
        -46.715999603271484,
        34.98495864868164,
        -41.96067428588867
      ],
      "type": "VEC3"
    },
    {
      "bufferView": 2,
      "byteOffset": 5504688,
      "componentType": 5126,
      "count": 65532,
      "max": [
        0.9999235272407532,
        0.9997319579124451,
        0.999989926815033
      ],
      "min": [
        -0.9999603033065796,
        -1.0,
        -0.9999978542327881
      ],
      "type": "VEC3"
    },
    {
      "bufferView": 1,
      "byteOffset": 1572768,
      "componentType": 5126,
      "count": 65532,
      "max": [
        0.9998819828033447,
        0.9999960064888
      ],
      "min": [
        0.00010399999882793054,
        0.00014800000644754618
      ],
      "type": "VEC2"
    },
    {
      "bufferView": 0,
      "byteOffset": 3959604,
      "componentType": 5125,
      "count": 319722,
      "type": "SCALAR"
    },
    {
      "bufferView": 2,
      "byteOffset": 6291072,
      "componentType": 5126,
      "count": 65532,
      "max": [
        51.1322021484375,
        51.93828582763672,
        9.572454452514648
      ],
      "min": [
        -40.17005920410156,
        35.32938766479492,
        -46.020591735839844
      ],
      "type": "VEC3"
    },
    {
      "bufferView": 2,
      "byteOffset": 7077456,
      "componentType": 5126,
      "count": 65532,
      "max": [
        0.999911904335022,
        0.9998396635055542,
        0.9999819397926331
      ],
      "min": [
        -0.9999167323112488,
        -0.9999998211860657,
        -0.9999938011169434
      ],
      "type": "VEC3"
    },
    {
      "bufferView": 1,
      "byteOffset": 2097024,
      "componentType": 5126,
      "count": 65532,
      "max": [
        0.9999859929084778,
        0.9999849796295166
      ],
      "min": [
        3.199999991920777e-05,
        0.00011500000255182385
      ],
      "type": "VEC2"
    },
    {
      "bufferView": 0,
      "byteOffset": 5238492,
      "componentType": 5125,
      "count": 304860,
      "type": "SCALAR"
    },
    {
      "bufferView": 2,
      "byteOffset": 7863840,
      "componentType": 5126,
      "count": 65532,
      "max": [
        17.382320404052734,
        51.14406204223633,
        4.10631799697876
      ],
      "min": [
        -56.22538375854492,
        32.15199279785156,
        -23.092910766601563
      ],
      "type": "VEC3"
    },
    {
      "bufferView": 2,
      "byteOffset": 8650224,
      "componentType": 5126,
      "count": 65532,
      "max": [
        0.9999587535858154,
        0.9999983310699463,
        0.999754011631012
      ],
      "min": [
        -0.9999524354934692,
        -1.0,
        -0.9998885989189148
      ],
      "type": "VEC3"
    },
    {
      "bufferView": 1,
      "byteOffset": 2621280,
      "componentType": 5126,
      "count": 65532,
      "max": [
        0.9999920129776001,
        0.9985449910163879
      ],
      "min": [
        1.700000029813964e-05,
        0.00013099999341648072
      ],
      "type": "VEC2"
    },
    {
      "bufferView": 0,
      "byteOffset": 6457932,
      "componentType": 5125,
      "count": 321339,
      "type": "SCALAR"
    },
    {
      "bufferView": 2,
      "byteOffset": 9436608,
      "componentType": 5126,
      "count": 65532,
      "max": [
        17.38640785217285,
        51.397186279296875,
        22.525489807128906
      ],
      "min": [
        -38.98534393310547,
        31.37602424621582,
        -51.644962310791016
      ],
      "type": "VEC3"
    },
    {
      "bufferView": 2,
      "byteOffset": 10222992,
      "componentType": 5126,
      "count": 65532,
      "max": [
        0.9999980330467224,
        0.9999756813049316,
        0.999979555606842
      ],
      "min": [
        -0.9999048113822937,
        -1.0,
        -0.999990701675415
      ],
      "type": "VEC3"
    },
    {
      "bufferView": 1,
      "byteOffset": 3145536,
      "componentType": 5126,
      "count": 65532,
      "max": [
        0.9999489784240723,
        0.9999600052833557
      ],
      "min": [
        6.900000153109431e-05,
        2.4000000848900527e-05
      ],
      "type": "VEC2"
    },
    {
      "bufferView": 0,
      "byteOffset": 7743288,
      "componentType": 5125,
      "count": 313596,
      "type": "SCALAR"
    },
    {
      "bufferView": 2,
      "byteOffset": 11009376,
      "componentType": 5126,
      "count": 65532,
      "max": [
        42.794769287109375,
        51.61670684814453,
        47.78447723388672
      ],
      "min": [
        -57.839359283447266,
        34.10624694824219,
        -55.81392288208008
      ],
      "type": "VEC3"
    },
    {
      "bufferView": 2,
      "byteOffset": 11795760,
      "componentType": 5126,
      "count": 65532,
      "max": [
        0.9995652437210083,
        0.9998633861541748,
        0.999997079372406
      ],
      "min": [
        -0.9999849796295166,
        -1.0,
        -0.999861478805542
      ],
      "type": "VEC3"
    },
    {
      "bufferView": 1,
      "byteOffset": 3669792,
      "componentType": 5126,
      "count": 65532,
      "max": [
        0.999783992767334,
        0.9998189806938171
      ],
      "min": [
        0.001088000019080937,
        0.00022200000239536166
      ],
      "type": "VEC2"
    },
    {
      "bufferView": 0,
      "byteOffset": 8997672,
      "componentType": 5125,
      "count": 314649,
      "type": "SCALAR"
    },
    {
      "bufferView": 2,
      "byteOffset": 12582144,
      "componentType": 5126,
      "count": 50763,
      "max": [
        41.58456039428711,
        51.87505340576172,
        -7.341301918029785
      ],
      "min": [
        1.9426360130310059,
        35.65032958984375,
        -30.795406341552734
      ],
      "type": "VEC3"
    },
    {
      "bufferView": 2,
      "byteOffset": 13191300,
      "componentType": 5126,
      "count": 50763,
      "max": [
        0.999990701675415,
        0.9999358057975769,
        0.9999186992645264
      ],
      "min": [
        -0.9999998807907104,
        -0.9999993443489075,
        -0.9999862313270569
      ],
      "type": "VEC3"
    },
    {
      "bufferView": 1,
      "byteOffset": 4194048,
      "componentType": 5126,
      "count": 50763,
      "max": [
        0.999983012676239,
        0.9999120235443115
      ],
      "min": [
        7.999999797903001e-05,
        1.1000000085914508e-05
      ],
      "type": "VEC2"
    },
    {
      "bufferView": 0,
      "byteOffset": 10256268,
      "componentType": 5125,
      "count": 209508,
      "type": "SCALAR"
    }
  ],
  "asset": {
    "extras": {
      "author": "Air Digital - Photogrammetry (https://sketchfab.com/AirDigitalca)",
      "license": "CC-BY-4.0 (http://creativecommons.org/licenses/by/4.0/)",
      "source": "https://sketchfab.com/3d-models/nunnery-hospital-photogrammetry-b3b39dadf2ba41928ad8524059bf6674",
      "title": "Nunnery Hospital Photogrammetry"
    },
    "generator": "Sketchfab-15.36.0",
    "version": "2.0"
  },
  "bufferViews": [
    {
      "buffer": 0,
      "byteLength": 11094300,
      "name": "floatBufferViews",
      "target": 34963
    },
    {
      "buffer": 0,
      "byteLength": 4600152,
      "byteOffset": 11094300,
      "byteStride": 8,
      "name": "floatBufferViews",
      "target": 34962
    },
    {
      "buffer": 0,
      "byteLength": 13800456,
      "byteOffset": 15694452,
      "byteStride": 12,
      "name": "floatBufferViews",
      "target": 34962
    }
  ],
  "buffers": [
    {
      "byteLength": 29494908,
      "uri": "scene.bin"
    }
  ],
  "images": [
    {
      "uri": "textures/nunnery_baseColor.jpeg"
    }
  ],
  "materials": [
    {
      "doubleSided": true,
      "name": "nunnery",
      "pbrMetallicRoughness": {
        "baseColorTexture": {
          "index": 0
        },
        "metallicFactor": 0.0
      }
    }
  ],
  "meshes": [
    {
      "name": "Object_0",
      "primitives": [
        {
          "attributes": {
            "NORMAL": 1,
            "POSITION": 0,
            "TEXCOORD_0": 2
          },
          "indices": 3,
          "material": 0,
          "mode": 4
        }
      ]
    },
    {
      "name": "Object_1",
      "primitives": [
        {
          "attributes": {
            "NORMAL": 5,
            "POSITION": 4,
            "TEXCOORD_0": 6
          },
          "indices": 7,
          "material": 0,
          "mode": 4
        }
      ]
    },
    {
      "name": "Object_2",
      "primitives": [
        {
          "attributes": {
            "NORMAL": 9,
            "POSITION": 8,
            "TEXCOORD_0": 10
          },
          "indices": 11,
          "material": 0,
          "mode": 4
        }
      ]
    },
    {
      "name": "Object_3",
      "primitives": [
        {
          "attributes": {
            "NORMAL": 13,
            "POSITION": 12,
            "TEXCOORD_0": 14
          },
          "indices": 15,
          "material": 0,
          "mode": 4
        }
      ]
    },
    {
      "name": "Object_4",
      "primitives": [
        {
          "attributes": {
            "NORMAL": 17,
            "POSITION": 16,
            "TEXCOORD_0": 18
          },
          "indices": 19,
          "material": 0,
          "mode": 4
        }
      ]
    },
    {
      "name": "Object_5",
      "primitives": [
        {
          "attributes": {
            "NORMAL": 21,
            "POSITION": 20,
            "TEXCOORD_0": 22
          },
          "indices": 23,
          "material": 0,
          "mode": 4
        }
      ]
    },
    {
      "name": "Object_6",
      "primitives": [
        {
          "attributes": {
            "NORMAL": 25,
            "POSITION": 24,
            "TEXCOORD_0": 26
          },
          "indices": 27,
          "material": 0,
          "mode": 4
        }
      ]
    },
    {
      "name": "Object_7",
      "primitives": [
        {
          "attributes": {
            "NORMAL": 29,
            "POSITION": 28,
            "TEXCOORD_0": 30
          },
          "indices": 31,
          "material": 0,
          "mode": 4
        }
      ]
    },
    {
      "name": "Object_8",
      "primitives": [
        {
          "attributes": {
            "NORMAL": 33,
            "POSITION": 32,
            "TEXCOORD_0": 34
          },
          "indices": 35,
          "material": 0,
          "mode": 4
        }
      ]
    }
  ],
  "nodes": [
    {
      "children": [
        1
      ],
      "matrix": [
        -0.7203937768936157,
        0.0033563117031006466,
        0.6935571432113647,
        0.0,
        0.0007190456381067634,
        -0.9999841451644897,
        0.005586063489317672,
        0.0,
        0.6935648918151855,
        0.0045228647068141295,
        0.7203799486160278,
        0.0,
        0.0,
        0.0,
        0.0,
        1.0
      ],
      "name": "Sketchfab_model"
    },
    {
      "children": [
        2,
        3,
        4,
        5,
        6,
        7,
        8,
        9,
        10
      ],
      "name": "nunnery.obj.cleaner.materialmerger.gles"
    },
    {
      "mesh": 0,
      "name": "Object_2"
    },
    {
      "mesh": 1,
      "name": "Object_3"
    },
    {
      "mesh": 2,
      "name": "Object_4"
    },
    {
      "mesh": 3,
      "name": "Object_5"
    },
    {
      "mesh": 4,
      "name": "Object_6"
    },
    {
      "mesh": 5,
      "name": "Object_7"
    },
    {
      "mesh": 6,
      "name": "Object_8"
    },
    {
      "mesh": 7,
      "name": "Object_9"
    },
    {
      "mesh": 8,
      "name": "Object_10"
    }
  ],
  "samplers": [
    {
      "magFilter": 9729,
      "minFilter": 9987,
      "wrapS": 10497,
      "wrapT": 10497
    }
  ],
  "scene": 0,
  "scenes": [
    {
      "name": "Sketchfab_Scene",
      "nodes": [
        0
      ]
    }
  ],
  "textures": [
    {
      "sampler": 0,
      "source": 0
    }
  ]
}
