{
  "accessors": [
    {
      "bufferView": 2,
      "componentType": 5126,
      "count": 4,
      "max": [
        0.43231064081192017,
        1.8597931861877441,
        0.9493868947029114
      ],
      "min": [
        -0.9794952273368835,
        0.5603486895561218,
        0.9493868947029114
      ],
      "type": "VEC3"
    },
    {
      "bufferView": 2,
      "byteOffset": 48,
      "componentType": 5126,
      "count": 4,
      "max": [
        0.0,
        0.0,
        1.0
      ],
      "min": [
        0.0,
        0.0,
        1.0
      ],
      "type": "VEC3"
    },
    {
      "bufferView": 1,
      "componentType": 5126,
      "count": 4,
      "max": [
        0.9204129576683044,
        1.0
      ],
      "min": [
        0.0,
        0.0
      ],
      "type": "VEC2"
    },
    {
      "bufferView": 0,
      "componentType": 5125,
      "count": 6,
      "type": "SCALAR"
    },
    {
      "bufferView": 2,
      "byteOffset": 96,
      "componentType": 5126,
      "count": 48,
      "max": [
        0.4099600315093994,
        1.6744871139526367,
        0.813168466091156
      ],
      "min": [
        -0.9407031536102295,
        0.7424899339675903,
        0.7855642437934875
      ],
      "type": "VEC3"
    },
    {
      "bufferView": 2,
      "byteOffset": 672,
      "componentType": 5126,
      "count": 48,
      "max": [
        0.7803236842155457,
        0.8039734363555908,
        0.7725289463996887
      ],
      "min": [
        -0.7803236842155457,
        -0.8039734363555908,
        -0.7725289463996887
      ],
      "type": "VEC3"
    },
    {
      "bufferView": 1,
      "byteOffset": 32,
      "componentType": 5126,
      "count": 48,
      "max": [
        0.9360595941543579,
        0.8910584449768066
      ],
      "min": [
        0.9252104163169861,
        0.09555339813232422
      ],
      "type": "VEC2"
    },
    {
      "bufferView": 0,
      "byteOffset": 24,
      "componentType": 5125,
      "count": 96,
      "type": "SCALAR"
    },
    {
      "bufferView": 2,
      "byteOffset": 1248,
      "componentType": 5126,
      "count": 280,
      "max": [
        0.9840915203094482,
        1.831088662147522,
        0.9683077335357666
      ],
      "min": [
        -0.9729645252227783,
        0.2635456621646881,
        0.7817762494087219
      ],
      "type": "VEC3"
    },
    {
      "bufferView": 2,
      "byteOffset": 4608,
      "componentType": 5126,
      "count": 280,
      "max": [
        1.0,
        1.0,
        1.0
      ],
      "min": [
        -1.0,
        -1.0,
        -1.0
      ],
      "type": "VEC3"
    },
    {
      "bufferView": 3,
      "componentType": 5126,
      "count": 280,
      "max": [
        1.0,
        1.0,
        1.0,
        1.0
      ],
      "min": [
        -0.00015521304158028215,
        -1.0,
        -1.0,
        1.0
      ],
      "type": "VEC4"
    },
    {
      "bufferView": 1,
      "byteOffset": 416,
      "componentType": 5126,
      "count": 280,
      "max": [
        0.7910436391830444,
        0.5823075175285339
      ],
      "min": [
        0.5497868657112122,
        0.2471620887517929
      ],
      "type": "VEC2"
    },
    {
      "bufferView": 0,
      "byteOffset": 408,
      "componentType": 5125,
      "count": 504,
      "type": "SCALAR"
    },
    {
      "bufferView": 2,
      "byteOffset": 7968,
      "componentType": 5126,
      "count": 3227,
      "max": [
        0.7858536839485168,
        1.8313590288162231,
        0.9868851900100708
      ],
      "min": [
        -0.9609320163726807,
        0.33839839696884155,
        -1.0268852710723877
      ],
      "type": "VEC3"
    },
    {
      "bufferView": 2,
      "byteOffset": 46692,
      "componentType": 5126,
      "count": 3227,
      "max": [
        1.0,
        1.0,
        1.0
      ],
      "min": [
        -1.0,
        -1.0,
        -1.0
      ],
      "type": "VEC3"
    },
    {
      "bufferView": 3,
      "byteOffset": 4480,
      "componentType": 5126,
      "count": 3227,
      "max": [
        1.0,
        1.0,
        1.0,
        1.0
      ],
      "min": [
        -1.0,
        -1.0,
        -1.0,
        -1.0
      ],
      "type": "VEC4"
    },
    {
      "bufferView": 1,
      "byteOffset": 2656,
      "componentType": 5126,
      "count": 3227,
      "max": [
        0.9999998807907104,
        0.962439775466919
      ],
      "min": [
        0.0,
        0.0
      ],
      "type": "VEC2"
    },
    {
      "bufferView": 0,
      "byteOffset": 2424,
      "componentType": 5125,
      "count": 5814,
      "type": "SCALAR"
    },
    {
      "bufferView": 2,
      "byteOffset": 85416,
      "componentType": 5126,
      "count": 22606,
      "max": [
        1.0281999111175537,
        1.9807697534561157,
        1.0079408884048462
      ],
      "min": [
        -1.017331838607788,
        0.0014718519523739815,
        -1.0655022859573364
      ],
      "type": "VEC3"
    },
    {
      "bufferView": 2,
      "byteOffset": 356688,
      "componentType": 5126,
      "count": 22606,
      "max": [
        1.0,
        1.0,
        1.0
      ],
      "min": [
        -1.0,
        -1.0,
        -1.0
      ],
      "type": "VEC3"
    },
    {
      "bufferView": 3,
      "byteOffset": 56112,
      "componentType": 5126,
      "count": 22606,
      "max": [
        1.0,
        1.0,
        1.0,
        1.0
      ],
      "min": [
        -1.0,
        -1.0,
        -1.0,
        -1.0
      ],
      "type": "VEC4"
    },
    {
      "bufferView": 1,
      "byteOffset": 28472,
      "componentType": 5126,
      "count": 22606,
      "max": [
        0.9882763028144836,
        1.0000001192092896
      ],
      "min": [
        0.0,
        0.0
      ],
      "type": "VEC2"
    },
    {
      "bufferView": 0,
      "byteOffset": 25680,
      "componentType": 5125,
      "count": 59964,
      "type": "SCALAR"
    },
    {
      "bufferView": 2,
      "byteOffset": 627960,
      "componentType": 5126,
      "count": 4874,
      "max": [
        1.0281999111175537,
        1.980779767036438,
        0.9685239791870117
      ],
      "min": [
        -1.0173320770263672,
        0.13696445524692535,
        -1.0326660871505737
      ],
      "type": "VEC3"
    },
    {
      "bufferView": 2,
      "byteOffset": 686448,
      "componentType": 5126,
      "count": 4874,
      "max": [
        1.0,
        1.0,
        1.0
      ],
      "min": [
        -1.0,
        -1.0,
        -1.0
      ],
      "type": "VEC3"
    },
    {
      "bufferView": 3,
      "byteOffset": 417808,
      "componentType": 5126,
      "count": 4874,
      "max": [
        0.9997162222862244,
        1.0,
        1.0,
        1.0
      ],
      "min": [
        -0.999729335308075,
        -0.9999999403953552,
        -1.0,
        -1.0
      ],
      "type": "VEC4"
    },
    {
      "bufferView": 1,
      "byteOffset": 209320,
      "componentType": 5126,
      "count": 4874,
      "max": [
        1.0,
        0.9575392007827759
      ],
      "min": [
        0.0,
        0.0
      ],
      "type": "VEC2"
    },
    {
      "bufferView": 0,
      "byteOffset": 265536,
      "componentType": 5125,
      "count": 7701,
      "type": "SCALAR"
    },
    {
      "bufferView": 2,
      "byteOffset": 744936,
      "componentType": 5126,
      "count": 59580,
      "max": [
        0.21113693714141846,
        19.987627029418945,
        0.9581700563430786
      ],
      "min": [
        -9.434243202209473,
        -0.9793915748596191,
        -8.258036613464355
      ],
      "type": "VEC3"
    },
    {
      "bufferView": 2,
      "byteOffset": 1459896,
      "componentType": 5126,
      "count": 59580,
      "max": [
        0.9998774528503418,
        1.0,
        0.9999194145202637
      ],
      "min": [
        -0.9998779296875,
        -1.0,
        -0.9999194145202637
      ],
      "type": "VEC3"
    },
    {
      "bufferView": 3,
      "byteOffset": 495792,
      "componentType": 5126,
      "count": 59580,
      "max": [
        0.7282813191413879,
        0.8928478956222534,
        0.9711408615112305,
        1.0
      ],
      "min": [
        -0.9389042854309082,
        -0.9569967985153198,
        -0.9999697208404541,
        1.0
      ],
      "type": "VEC4"
    },
    {
      "bufferView": 1,
      "byteOffset": 248312,
      "componentType": 5126,
      "count": 59580,
      "max": [
        0.9400279521942139,
        0.9705219268798828
      ],
      "min": [
        0.02721533179283142,
        0.017477720975875854
      ],
      "type": "VEC2"
    },
    {
      "bufferView": 1,
      "byteOffset": 724952,
      "componentType": 5126,
      "count": 59580,
      "max": [
        0.9400279521942139,
        0.9705219268798828
      ],
      "min": [
        0.02721533179283142,
        0.017477720975875854
      ],
      "type": "VEC2"
    },
    {
      "bufferView": 1,
      "byteOffset": 1201592,
      "componentType": 5126,
      "count": 59580,
      "max": [
        0.9400279521942139,
        0.9705219268798828
      ],
      "min": [
        0.02721533179283142,
        0.017477720975875854
      ],
      "type": "VEC2"
    },
    {
      "bufferView": 1,
      "byteOffset": 1678232,
      "componentType": 5126,
      "count": 59580,
      "max": [
        0.9400279521942139,
        0.9705219268798828
      ],
      "min": [
        0.02721533179283142,
        0.017477720975875854
      ],
      "type": "VEC2"
    },
    {
      "bufferView": 0,
      "byteOffset": 296340,
      "componentType": 5125,
      "count": 311040,
      "type": "SCALAR"
    }
  ],
  "asset": {
    "extras": {
      "author": "hectopod (https://sketchfab.com/hectopod)",
      "license": "CC-BY-4.0 (http://creativecommons.org/licenses/by/4.0/)",
      "source": "https://sketchfab.com/3d-models/vending-machine-9974acbcd8794694987f1e69924f80d9",
      "title": "Vending machine"
    },
    "generator": "Sketchfab-12.66.0",
    "version": "2.0"
  },
  "bufferViews": [
    {
      "buffer": 0,
      "byteLength": 1540500,
      "name": "floatBufferViews",
      "target": 34963
    },
    {
      "buffer": 0,
      "byteLength": 2154872,
      "byteOffset": 1540500,
      "byteStride": 8,
      "name": "floatBufferViews",
      "target": 34962
    },
    {
      "buffer": 0,
      "byteLength": 2174856,
      "byteOffset": 3695372,
      "byteStride": 12,
      "name": "floatBufferViews",
      "target": 34962
    },
    {
      "buffer": 0,
      "byteLength": 1449072,
      "byteOffset": 5870228,
      "byteStride": 16,
      "name": "floatBufferViews",
      "target": 34962
    }
  ],
  "buffers": [
    {
      "byteLength": 7319300,
      "uri": "scene.bin"
    }
  ],
  "extensionsUsed": [
    "KHR_materials_transmission"
  ],
  "images": [
    {
      "uri": "textures/glass_metallicRoughness.png"
    },
    {
      "uri": "textures/wood_baseColor.png"
    },
    {
      "uri": "textures/wood_metallicRoughness.png"
    },
    {
      "uri": "textures/wood_normal.png"
    },
    {
      "uri": "textures/black_plastic_baseColor.png"
    },
    {
      "uri": "textures/black_plastic_metallicRoughness.png"
    },
    {
      "uri": "textures/black_plastic_normal.png"
    },
    {
      "uri": "textures/metal_baseColor.png"
    },
    {
      "uri": "textures/metal_metallicRoughness.png"
    },
    {
      "uri": "textures/metal_normal.png"
    },
    {
      "uri": "textures/main_color_baseColor.png"
    },
    {
      "uri": "textures/main_color_metallicRoughness.png"
    },
    {
      "uri": "textures/main_color_normal.png"
    },
    {
      "uri": "textures/egg.001_baseColor.png"
    },
    {
      "uri": "textures/egg.001_metallicRoughness.png"
    },
    {
      "uri": "textures/egg.001_normal.png"
    }
  ],
  "materials": [
    {
      "alphaMode": "BLEND",
      "doubleSided": true,
      "extensions": {
        "KHR_materials_transmission": {
          "transmissionFactor": 1.0
        }
      },
      "name": "glass",
      "pbrMetallicRoughness": {
        "baseColorFactor": [
          0.0,
          0.0,
          0.0,
          0.25
        ],
        "metallicFactor": 0.0,
        "metallicRoughnessTexture": {
          "index": 0
        }
      }
    },
    {
      "doubleSided": true,
      "emissiveFactor": [
        1.0,
        1.0,
        1.0
      ],
      "name": "light",
      "pbrMetallicRoughness": {
        "baseColorFactor": [
          0.8,
          0.8,
          0.8,
          1.0
        ],
        "metallicFactor": 0.0,
        "roughnessFactor": 0.5
      }
    },
    {
      "doubleSided": true,
      "name": "wood",
      "normalTexture": {
        "index": 3
      },
      "pbrMetallicRoughness": {
        "baseColorTexture": {
          "index": 1
        },
        "metallicFactor": 0.0,
        "metallicRoughnessTexture": {
          "index": 2
        }
      }
    },
    {
      "doubleSided": true,
      "name": "black_plastic",
      "normalTexture": {
        "index": 6
      },
      "pbrMetallicRoughness": {
        "baseColorTexture": {
          "index": 4
        },
        "metallicFactor": 0.0,
        "metallicRoughnessTexture": {
          "index": 5
        }
      }
    },
    {
      "doubleSided": true,
      "name": "metal",
      "normalTexture": {
        "index": 9
      },
      "pbrMetallicRoughness": {
        "baseColorTexture": {
          "index": 7
        },
        "metallicFactor": 0.5854894085962895,
        "metallicRoughnessTexture": {
          "index": 8
        }
      }
    },
    {
      "doubleSided": true,
      "name": "main_color",
      "normalTexture": {
        "index": 12
      },
      "pbrMetallicRoughness": {
        "baseColorTexture": {
          "index": 10
        },
        "metallicRoughnessTexture": {
          "index": 11
        }
      }
    },
    {
      "doubleSided": true,
      "name": "egg.001",
      "normalTexture": {
        "index": 15
      },
      "pbrMetallicRoughness": {
        "baseColorTexture": {
          "index": 13
        },
        "metallicFactor": 0.0,
        "metallicRoughnessTexture": {
          "index": 14
        }
      }
    }
  ],
  "meshes": [
    {
      "name": "Object_0",
      "primitives": [
        {
          "attributes": {
            "NORMAL": 1,
            "POSITION": 0,
            "TEXCOORD_0": 2
          },
          "indices": 3,
          "material": 0,
          "mode": 4
        }
      ]
    },
    {
      "name": "Object_1",
      "primitives": [
        {
          "attributes": {
            "NORMAL": 5,
            "POSITION": 4,
            "TEXCOORD_0": 6
          },
          "indices": 7,
          "material": 1,
          "mode": 4
        }
      ]
    },
    {
      "name": "Object_2",
      "primitives": [
        {
          "attributes": {
            "NORMAL": 9,
            "POSITION": 8,
            "TANGENT": 10,
            "TEXCOORD_0": 11
          },
          "indices": 12,
          "material": 2,
          "mode": 4
        }
      ]
    },
    {
      "name": "Object_3",
      "primitives": [
        {
          "attributes": {
            "NORMAL": 14,
            "POSITION": 13,
            "TANGENT": 15,
            "TEXCOORD_0": 16
          },
          "indices": 17,
          "material": 3,
          "mode": 4
        }
      ]
    },
    {
      "name": "Object_4",
      "primitives": [
        {
          "attributes": {
            "NORMAL": 19,
            "POSITION": 18,
            "TANGENT": 20,
            "TEXCOORD_0": 21
          },
          "indices": 22,
          "material": 4,
          "mode": 4
        }
      ]
    },
    {
      "name": "Object_5",
      "primitives": [
        {
          "attributes": {
            "NORMAL": 24,
            "POSITION": 23,
            "TANGENT": 25,
            "TEXCOORD_0": 26
          },
          "indices": 27,
          "material": 5,
          "mode": 4
        }
      ]
    },
    {
      "name": "Object_6",
      "primitives": [
        {
          "attributes": {
            "NORMAL": 29,
            "POSITION": 28,
            "TANGENT": 30,
            "TEXCOORD_0": 31,
            "TEXCOORD_1": 32,
            "TEXCOORD_2": 33,
            "TEXCOORD_3": 34
          },
          "indices": 35,
          "material": 6,
          "mode": 4
        }
      ]
    }
  ],
  "nodes": [
    {
      "children": [
        1
      ],
      "matrix": [
        1.0,
        0.0,
        0.0,
        0.0,
        0.0,
        2.220446049250313e-16,
        -1.0,
        0.0,
        0.0,
        1.0,
        2.220446049250313e-16,
        0.0,
        0.0,
        0.0,
        0.0,
        1.0
      ],
      "name": "Sketchfab_model"
    },
    {
      "children": [
        2
      ],
      "name": "root"
    },
    {
      "children": [
        3,
        10
      ],
      "matrix": [
        1.0,
        0.0,
        0.0,
        0.0,
        0.0,
        2.220446049250313e-16,
        1.0,
        0.0,
        0.0,
        -1.0,
        2.220446049250313e-16,
        0.0,
        0.0,
        0.0,
        0.0,
        1.0
      ],
      "name": "GLTF_SceneRootNode"
    },
    {
      "children": [
        4,
        5,
        6,
        7,
        8,
        9
      ],
      "matrix": [
        1.0,
        0.0,
        0.0,
        0.0,
        0.0,
        1.8058658838272095,
        0.0,
        0.0,
        0.0,
        0.0,
        1.0,
        0.0,
        0.0,
        0.0,
        0.03218092396855354,
        1.0
      ],
      "name": "vend.m_0"
    },
    {
      "mesh": 0,
      "name": "Object_4"
    },
    {
      "mesh": 1,
      "name": "Object_5"
    },
    {
      "mesh": 2,
      "name": "Object_6"
    },
    {
      "mesh": 3,
      "name": "Object_7"
    },
    {
      "mesh": 4,
      "name": "Object_8"
    },
    {
      "mesh": 5,
      "name": "Object_9"
    },
    {
      "children": [
        11
      ],
      "matrix": [
        0.09841933101415634,
        0.0,
        0.0,
        0.0,
        0.0,
        0.09841933101415634,
        0.0,
        0.0,
        0.0,
        0.0,
        0.09841933101415634,
        0.0,
        0.18122079968452454,
        1.237153172492981,
        0.5372751951217651,
        1.0
      ],
      "name": "eggs_1"
    },
    {
      "mesh": 6,
      "name": "Object_11"
    }
  ],
  "samplers": [
    {
      "magFilter": 9729,
      "minFilter": 9987,
      "wrapS": 10497,
      "wrapT": 10497
    }
  ],
  "scene": 0,
  "scenes": [
    {
      "name": "Sketchfab_Scene",
      "nodes": [
        0
      ]
    }
  ],
  "textures": [
    {
      "sampler": 0,
      "source": 0
    },
    {
      "sampler": 0,
      "source": 1
    },
    {
      "sampler": 0,
      "source": 2
    },
    {
      "sampler": 0,
      "source": 3
    },
    {
      "sampler": 0,
      "source": 4
    },
    {
      "sampler": 0,
      "source": 5
    },
    {
      "sampler": 0,
      "source": 6
    },
    {
      "sampler": 0,
      "source": 7
    },
    {
      "sampler": 0,
      "source": 8
    },
    {
      "sampler": 0,
      "source": 9
    },
    {
      "sampler": 0,
      "source": 10
    },
    {
      "sampler": 0,
      "source": 11
    },
    {
      "sampler": 0,
      "source": 12
    },
    {
      "sampler": 0,
      "source": 13
    },
    {
      "sampler": 0,
      "source": 14
    },
    {
      "sampler": 0,
      "source": 15
    }
  ]
}
